<svg width="23" height="22" viewBox="0 0 23 22" fill="none" xmlns="http://www.w3.org/2000/svg">
    <path d="M20.5013 0C21.3298 0 22.0013 0.671573 22.0013 1.5V7.5C22.0013 7.77614 21.7775 8 21.5013 8H19.5013C19.2252 8 19.0013 7.77614 19.0013 7.5V5.12132L14.8298 9.29289C14.4392 9.68342 13.8061 9.68342 13.4156 9.29289L12.7084 8.58579C12.3179 8.19526 12.3179 7.5621 12.7084 7.17157L16.88 3H14.5013C14.2252 3 14.0013 2.77614 14.0013 2.5V0.5C14.0013 0.223858 14.2252 0 14.5013 0H20.5013Z"
          fill="#868D93"/>
    <path d="M0.00134277 1.5C0.00134277 0.671573 0.672916 0 1.50134 0H7.50134C7.77748 0 8.00134 0.223858 8.00134 0.5V2.5C8.00134 2.77614 7.77748 3 7.50134 3H5.12266L9.29424 7.17157C9.68476 7.5621 9.68476 8.19526 9.29424 8.58579L8.58713 9.29289C8.1966 9.68342 7.56344 9.68342 7.17291 9.29289L3.00134 5.12132L3.00134 7.5C3.00134 7.77614 2.77749 8 2.50134 8H0.501344C0.225202 8 0.00134277 7.77614 0.00134277 7.5V1.5Z"
          fill="#868D93"/>
    <path d="M3.00134 16.8787L7.17292 12.7071C7.56344 12.3166 8.19661 12.3166 8.58713 12.7071L9.29424 13.4142C9.68476 13.8047 9.68476 14.4379 9.29424 14.8284L5.12266 19H7.50134C7.77749 19 8.00134 19.2239 8.00134 19.5V21.5C8.00134 21.7761 7.77749 22 7.50134 22H1.50134C1.10352 22 0.721987 21.842 0.440683 21.5607C0.159378 21.2794 0.00134277 20.8978 0.00134277 20.5V14.5C0.00134277 14.2239 0.225202 14 0.501344 14H2.50134C2.77749 14 3.00134 14.2239 3.00134 14.5L3.00134 16.8787Z"
          fill="#868D93"/>
    <path d="M22.0013 20.5C22.0013 21.3284 21.3298 22 20.5013 22H14.5013C14.2252 22 14.0013 21.7761 14.0013 21.5V19.5C14.0013 19.2239 14.2252 19 14.5013 19H16.88L12.7084 14.8284C12.3179 14.4379 12.3179 13.8047 12.7084 13.4142L13.4156 12.7071C13.8061 12.3166 14.4392 12.3166 14.8298 12.7071L19.0013 16.8787V14.5C19.0013 14.2239 19.2252 14 19.5013 14H21.5013C21.7775 14 22.0013 14.2239 22.0013 14.5V20.5Z"
          fill="#868D93"/>
</svg>
