<svg width="25" height="23" viewBox="0 0 25 23" fill="none" xmlns="http://www.w3.org/2000/svg">
<path d="M7.90692 22.5V20.7361C7.90692 20.168 8.22792 19.6486 8.7361 19.3945L15.3709 16.1709C15.7033 16.0046 16.0945 16.2464 16.0945 16.6181V18.382C16.0945 18.9502 15.7735 19.4696 15.2653 19.7236L8.63053 22.9473C8.29808 23.1135 7.90692 22.8717 7.90692 22.5Z" fill="#868D93"/>
<path fill-rule="evenodd" clip-rule="evenodd" d="M22.4986 0H1.5028C0.249434 0 -0.451174 1.44601 0.325611 2.42964L7.6878 11.7523C7.82965 11.9296 7.90693 12.1499 7.90693 12.377V17.309C7.90693 18.0524 8.68924 18.5359 9.35414 18.2034L14.9889 15.4798C15.6665 15.1411 16.0945 14.4485 16.0945 13.691V12.377C16.0945 12.1499 16.1718 11.9296 16.3136 11.7523L23.6758 2.42963C24.4526 1.446 23.752 0 22.4986 0ZM4.8528 3.40617C4.72185 3.24248 4.83839 3 5.04802 3H18.9534C19.163 3 19.2796 3.24248 19.1486 3.40617L13.3136 10.6999C13.1718 10.8772 13.0945 11.0975 13.0945 11.3246V12.7639C13.0945 12.9533 12.9875 13.1265 12.8181 13.2111L11.2687 13.892C11.1025 13.9752 10.9069 13.8543 10.9069 13.6684V11.3246C10.9069 11.0975 10.8296 10.8772 10.6878 10.6999L4.8528 3.40617Z" fill="#868D93"/>
</svg>
