<svg width="24" height="24" viewBox="0 0 24 24" fill="none" xmlns="http://www.w3.org/2000/svg">
<path d="M15.502 9.58579C14.6736 9.58579 14.002 8.91421 14.002 8.08579V2.08579C14.002 1.80965 14.2259 1.58579 14.502 1.58579H16.502C16.7782 1.58579 17.002 1.80965 17.002 2.08579V4.46447L21.1736 0.292893C21.5641 -0.0976313 22.1973 -0.0976311 22.5878 0.292894L23.2949 1C23.6855 1.39053 23.6855 2.02369 23.2949 2.41421L19.1234 6.58579H21.502C21.7782 6.58579 22.002 6.80965 22.002 7.08579V9.08579C22.002 9.36193 21.7782 9.58579 21.502 9.58579H15.502Z" fill="#868D93"/>
<path d="M10.002 8.08579C10.002 8.91421 9.33047 9.58579 8.50205 9.58579H2.50205C2.2259 9.58579 2.00205 9.36193 2.00205 9.08579V7.08579C2.00205 6.80965 2.2259 6.58579 2.50205 6.58579H4.88073L0.709153 2.41421C0.318629 2.02369 0.318629 1.39053 0.709153 1L1.41626 0.292893C1.80678 -0.0976311 2.43995 -0.0976309 2.83047 0.292894L7.00205 4.46447L7.00205 2.08579C7.00205 1.80965 7.2259 1.58579 7.50205 1.58579H9.50205C9.77819 1.58579 10.002 1.80965 10.002 2.08579L10.002 8.08579Z" fill="#868D93"/>
<path d="M7.00205 18.7071L2.83047 22.8787C2.43995 23.2692 1.80678 23.2692 1.41626 22.8787L0.709153 22.1716C0.318629 21.781 0.31863 21.1479 0.709154 20.7574L4.88073 16.5858H2.50205C2.2259 16.5858 2.00205 16.3619 2.00205 16.0858V14.0858C2.00205 13.8096 2.2259 13.5858 2.50205 13.5858H8.50205C8.89987 13.5858 9.2814 13.7438 9.56271 14.0251C9.84401 14.3064 10.002 14.688 10.002 15.0858L10.002 21.0858C10.002 21.3619 9.77819 21.5858 9.50205 21.5858H7.50205C7.2259 21.5858 7.00205 21.3619 7.00205 21.0858V18.7071Z" fill="#868D93"/>
<path d="M14.002 15.0858C14.002 14.2574 14.6736 13.5858 15.502 13.5858H21.502C21.7782 13.5858 22.002 13.8096 22.002 14.0858V16.0858C22.002 16.3619 21.7782 16.5858 21.502 16.5858H19.1234L23.2949 20.7574C23.6855 21.1479 23.6855 21.781 23.2949 22.1716L22.5878 22.8787C22.1973 23.2692 21.5641 23.2692 21.1736 22.8787L17.002 18.7071V21.0858C17.002 21.3619 16.7782 21.5858 16.502 21.5858H14.502C14.2259 21.5858 14.002 21.3619 14.002 21.0858V15.0858Z" fill="#868D93"/>
</svg>
