<svg width="21" height="24" viewBox="0 0 21 24" fill="none" xmlns="http://www.w3.org/2000/svg">
    <path d="M10.0013 24C11.4818 24 12.7208 22.9131 12.9597 21.4979C13.0057 21.2256 12.7775 21 12.5013 21H7.50134C7.2252 21 6.99697 21.2256 7.04294 21.4979C7.28186 22.9131 8.52084 24 10.0013 24Z"
          fill="#868D93"/>
    <path fill-rule="evenodd" clip-rule="evenodd"
          d="M17.5013 16L17.5013 10.2001C17.5013 6.48013 15.0812 3.44 11.6012 2.6L11.6012 1.00001C11.6012 0.447721 11.1535 0 10.6012 0H9.40134C8.84906 0 8.40134 0.447715 8.40134 1V2.6C4.92134 3.44 2.50134 6.48013 2.50134 10.2001V16L0.417038 17.5007C0.156032 17.6886 0.00134277 17.9906 0.00134277 18.3122V19C0.00134277 19.5523 0.449057 20 1.00134 20H19.0013C19.5536 20 20.0013 19.5523 20.0013 19V18.3122C20.0013 17.9906 19.8466 17.6886 19.5856 17.5007L17.5013 16ZM14.5013 16.5C14.5013 16.7761 14.2775 17 14.0013 17H6.00134C5.7252 17 5.50134 16.7761 5.50134 16.5V10.4091C5.50134 7.68182 7.50134 5.5 10.0013 5.5C12.5013 5.5 14.5013 7.68182 14.5013 10.4091V16.5Z"
          fill="#868D93"/>
</svg>
