<svg width="10" height="10" viewBox="0 0 10 10" fill="none" xmlns="http://www.w3.org/2000/svg">
<path d="M9.74607 0.449085C9.56814 0.375431 9.41627 0.405714 9.29033 0.540275L8.44399 1.38021C7.97959 0.941815 7.44901 0.602208 6.85222 0.361316C6.25543 0.120446 5.638 0 4.99998 0C4.32292 0 3.67623 0.132441 3.05992 0.397162C2.44356 0.661907 1.91187 1.01775 1.46485 1.46481C1.0178 1.91191 0.661872 2.44354 0.397132 3.05986C0.132415 3.67623 0 4.32284 0 5C0 5.67696 0.132415 6.32372 0.397155 6.94007C0.661963 7.55646 1.0178 8.08814 1.46487 8.53519C1.91189 8.98211 2.44359 9.33802 3.05994 9.60279C3.67626 9.86756 4.32294 10 5 10C5.74647 10 6.4563 9.84268 7.12893 9.52798C7.80161 9.21341 8.37453 8.76954 8.84773 8.19659C8.88239 8.1532 8.89867 8.10435 8.89644 8.0501C8.89441 7.99588 8.87366 7.95139 8.83462 7.91666L7.94285 7.01824C7.89494 6.97922 7.84086 6.95973 7.78006 6.95973C7.71063 6.96839 7.66076 6.99452 7.63034 7.03792C7.3135 7.45033 6.92505 7.76926 6.46496 7.99512C6.00496 8.22074 5.51669 8.3335 5.00018 8.3335C4.54887 8.3335 4.11808 8.24562 3.70793 8.06981C3.29773 7.89408 2.94287 7.65645 2.64345 7.35696C2.34405 7.05744 2.10642 6.70271 1.93062 6.29246C1.75485 5.8823 1.66695 5.45162 1.66695 5.00018C1.66695 4.54879 1.75492 4.11791 1.93062 3.70784C2.10636 3.29772 2.34396 2.94286 2.64345 2.64343C2.94297 2.34394 3.29773 2.1063 3.70793 1.93049C4.11799 1.75475 4.54887 1.66682 5.00018 1.66682C5.87259 1.66682 6.63001 1.96415 7.27238 2.55879L6.37375 3.45709C6.23915 3.58732 6.20886 3.73709 6.28252 3.90634C6.35642 4.07996 6.48446 4.16675 6.66683 4.16675H9.58344C9.69629 4.16675 9.79391 4.12554 9.87641 4.04307C9.9588 3.96061 10 3.86297 10 3.75011V0.833387C9.99995 0.651144 9.91554 0.523104 9.74607 0.449085Z" fill="white"/>
</svg>
