<svg width="24" height="24" viewBox="0 0 24 24" fill="none" xmlns="http://www.w3.org/2000/svg">
<path fill-rule="evenodd" clip-rule="evenodd" d="M9.90679 0C8.62877 0 7.55752 0.968246 7.42583 2.24241L7.29813 3.47807C6.92456 3.66268 6.56487 3.87113 6.22105 4.10143L5.12331 3.59862C3.95373 3.0629 2.5695 3.50623 1.92653 4.62244L0.33949 7.37764C-0.303471 8.49385 0.00559962 9.91706 1.05327 10.6644L2.02282 11.3561C2.00858 11.5689 2.00134 11.7836 2.00134 12C2.00134 12.2095 2.00812 12.4174 2.02147 12.6235L1.03274 13.3412C-0.00232387 14.0926 -0.303286 15.5066 0.335725 16.616L1.93027 19.3842C2.56929 20.4936 3.94153 20.9393 5.10828 20.4165L6.23837 19.9101C6.58265 20.1397 6.94276 20.3473 7.31671 20.5311L7.4313 21.737C7.55322 23.0201 8.62838 24 9.9143 24H13.0959C14.3739 24 15.4452 23.0318 15.5769 21.7576L15.7046 20.5219C16.0781 20.3373 16.4378 20.1289 16.7816 19.8986L17.8794 20.4015C19.049 20.9372 20.4332 20.4939 21.0762 19.3776L22.667 16.6159C23.306 15.5066 23.005 14.0926 21.9699 13.3412L20.9812 12.6235C20.9946 12.4174 21.0013 12.2095 21.0013 12C21.0013 11.7836 20.9941 11.5689 20.9799 11.3561L21.9494 10.6645C22.9971 9.91711 23.3062 8.4939 22.6632 7.37768L21.0724 4.61596C20.4334 3.50661 19.0612 3.06085 17.8944 3.58361L16.7644 4.08991C16.4201 3.86037 16.06 3.65271 15.686 3.46892L15.5714 2.26298C15.4495 0.979887 14.3743 0 13.0884 0H9.90679ZM9.73375 5.74327C9.94082 5.68486 10.098 5.51086 10.1201 5.29685L10.3111 3.4486C10.3374 3.19372 10.5522 3 10.8084 3H12.1809C12.4387 3 12.6542 3.19604 12.6786 3.4527L12.8527 5.2843C12.8732 5.50096 13.0322 5.67753 13.2419 5.73568C14.3053 6.0305 15.2591 6.58881 16.0286 7.33589C16.1827 7.48549 16.4116 7.5341 16.6076 7.44632L18.2938 6.69112C18.5279 6.58623 18.8035 6.67554 18.9315 6.89785L19.6187 8.09081C19.7472 8.31384 19.6853 8.59795 19.4758 8.74743L17.9908 9.80675C17.8139 9.93297 17.7406 10.1586 17.795 10.369C17.9297 10.8902 18.0013 11.4367 18.0013 12C18.0013 12.553 17.9323 13.0898 17.8024 13.6023C17.7496 13.8106 17.8215 14.0333 17.9953 14.1595L19.4867 15.2421C19.6937 15.3924 19.7539 15.6746 19.6262 15.8963L18.9391 17.0892C18.8102 17.3129 18.5323 17.4017 18.2976 17.2942L16.635 16.5326C16.4374 16.4421 16.2053 16.4911 16.0501 16.6431C15.2838 17.3939 14.3322 17.9567 13.2706 18.2563C13.0635 18.3148 12.9064 18.4887 12.8843 18.7027L12.6932 20.5514C12.6669 20.8063 12.4521 21 12.1959 21H10.8235C10.5656 21 10.3501 20.804 10.3257 20.5473L10.1517 18.7161C10.1311 18.4994 9.97211 18.3228 9.76235 18.2647C8.6987 17.97 7.74415 17.4115 6.97438 16.6644C6.82024 16.5148 6.59134 16.4662 6.39532 16.554L4.71049 17.309C4.47637 17.4139 4.20083 17.3246 4.07278 17.1023L3.37812 15.8963C3.25045 15.6747 3.31065 15.3924 3.51765 15.2421L5.00766 14.1604C5.18151 14.0342 5.25341 13.8115 5.20059 13.6033C5.07053 13.0904 5.00134 12.5531 5.00134 12C5.00134 11.4365 5.07304 10.8898 5.20781 10.3685C5.2622 10.1581 5.18903 9.93247 5.01215 9.80623L3.52853 8.74738C3.319 8.59791 3.25718 8.3138 3.38564 8.09077L4.06528 6.91088C4.19413 6.68719 4.47207 6.59836 4.70676 6.70586L6.36822 7.46685C6.56578 7.55734 6.79784 7.50844 6.95308 7.35638C7.71965 6.60554 8.67178 6.04283 9.73375 5.74327Z" fill="#868D93"/>
<path fill-rule="evenodd" clip-rule="evenodd" d="M11.5013 13C12.0536 13 12.5013 12.5523 12.5013 12C12.5013 11.4477 12.0536 11 11.5013 11C10.9491 11 10.5013 11.4477 10.5013 12C10.5013 12.5523 10.9491 13 11.5013 13ZM11.5013 16C13.7105 16 15.5013 14.2091 15.5013 12C15.5013 9.79086 13.7105 8 11.5013 8C9.2922 8 7.50134 9.79086 7.50134 12C7.50134 14.2091 9.2922 16 11.5013 16Z" fill="#868D93"/>
</svg>
